<?xml version="1.0" encoding="UTF-8" standalone="no"?>
<!DOCTYPE svg PUBLIC "-//W3C//DTD SVG 1.1//EN"
 "http://www.w3.org/Graphics/SVG/1.1/DTD/svg11.dtd">
<!-- Generated by graphviz version 2.43.0 (0)
 -->
<!-- Title: %3 Pages: 1 -->
<svg width="848pt" height="1622pt"
 viewBox="0.00 0.00 847.89 1622.43" xmlns="http://www.w3.org/2000/svg" xmlns:xlink="http://www.w3.org/1999/xlink">
<g id="graph0" class="graph" transform="scale(1 1) rotate(0) translate(4 1618.43)">
<title>%3</title>
<polygon fill="white" stroke="transparent" points="-4,4 -4,-1618.43 843.89,-1618.43 843.89,4 -4,4"/>
<!-- &#45;2493902178443843437 -->
<g id="node1" class="node">
<title>&#45;2493902178443843437</title>
<ellipse fill="none" stroke="black" cx="166.94" cy="-1476.79" rx="65.79" ry="65.79"/>
<text text-anchor="middle" x="166.94" y="-1473.09" font-family="Helvetica,sans-Serif" font-size="14.00">join&#45;indexed</text>
</g>
<!-- &#45;7617450624573128696 -->
<g id="node2" class="node">
<title>&#45;7617450624573128696</title>
<polygon fill="none" stroke="black" points="193.94,-1614.43 139.94,-1614.43 139.94,-1578.43 193.94,-1578.43 193.94,-1614.43"/>
<text text-anchor="middle" x="166.94" y="-1592.73" font-family="Helvetica,sans-Serif" font-size="14.00">0</text>
</g>
<!-- &#45;2493902178443843437&#45;&gt;&#45;7617450624573128696 -->
<g id="edge1" class="edge">
<title>&#45;2493902178443843437&#45;&gt;&#45;7617450624573128696</title>
<path fill="none" stroke="black" d="M166.94,-1542.46C166.94,-1551.46 166.94,-1560.27 166.94,-1568.05"/>
<polygon fill="black" stroke="black" points="163.44,-1568.26 166.94,-1578.26 170.44,-1568.26 163.44,-1568.26"/>
</g>
<!-- &#45;3284065025705737836 -->
<g id="node3" class="node">
<title>&#45;3284065025705737836</title>
<polygon fill="none" stroke="black" points="156.94,-915.61 102.94,-915.61 102.94,-879.61 156.94,-879.61 156.94,-915.61"/>
<text text-anchor="middle" x="129.94" y="-893.91" font-family="Helvetica,sans-Serif" font-size="14.00">0</text>
</g>
<!-- &#45;3284065025705737836&#45;&gt;&#45;2493902178443843437 -->
<g id="edge2" class="edge">
<title>&#45;3284065025705737836&#45;&gt;&#45;2493902178443843437</title>
<path fill="none" stroke="black" d="M130.98,-915.69C133.34,-956.31 138.94,-1061.91 138.94,-1150.2 138.94,-1150.2 138.94,-1150.2 138.94,-1286.14 138.94,-1324.76 144.7,-1367.34 150.99,-1402.35"/>
<polygon fill="black" stroke="black" points="147.6,-1403.29 152.86,-1412.48 154.48,-1402.01 147.6,-1403.29"/>
</g>
<!-- 2988663148470064407 -->
<g id="node4" class="node">
<title>2988663148470064407</title>
<polygon fill="none" stroke="black" points="234.94,-1375.14 180.94,-1375.14 180.94,-1339.14 234.94,-1339.14 234.94,-1375.14"/>
<text text-anchor="middle" x="207.94" y="-1353.44" font-family="Helvetica,sans-Serif" font-size="14.00">0</text>
</g>
<!-- 2988663148470064407&#45;&gt;&#45;2493902178443843437 -->
<g id="edge3" class="edge">
<title>2988663148470064407&#45;&gt;&#45;2493902178443843437</title>
<path fill="none" stroke="black" d="M201.98,-1375.25C199.13,-1383.43 195.5,-1393.83 191.67,-1404.82"/>
<polygon fill="black" stroke="black" points="188.25,-1404 188.27,-1414.59 194.87,-1406.3 188.25,-1404"/>
</g>
<!-- 3275365941300815015 -->
<g id="node5" class="node">
<title>3275365941300815015</title>
<ellipse fill="none" stroke="black" cx="537.94" cy="-1476.79" rx="65.79" ry="65.79"/>
<text text-anchor="middle" x="537.94" y="-1473.09" font-family="Helvetica,sans-Serif" font-size="14.00">join&#45;indexed</text>
</g>
<!-- &#45;1109809868471130271 -->
<g id="node6" class="node">
<title>&#45;1109809868471130271</title>
<polygon fill="none" stroke="black" points="564.94,-1614.43 510.94,-1614.43 510.94,-1578.43 564.94,-1578.43 564.94,-1614.43"/>
<text text-anchor="middle" x="537.94" y="-1592.73" font-family="Helvetica,sans-Serif" font-size="14.00">1</text>
</g>
<!-- 3275365941300815015&#45;&gt;&#45;1109809868471130271 -->
<g id="edge4" class="edge">
<title>3275365941300815015&#45;&gt;&#45;1109809868471130271</title>
<path fill="none" stroke="black" d="M537.94,-1542.46C537.94,-1551.46 537.94,-1560.27 537.94,-1568.05"/>
<polygon fill="black" stroke="black" points="534.44,-1568.26 537.94,-1578.26 541.44,-1568.26 534.44,-1568.26"/>
</g>
<!-- &#45;6302768263487000087 -->
<g id="node7" class="node">
<title>&#45;6302768263487000087</title>
<polygon fill="none" stroke="black" points="605.94,-1375.14 551.94,-1375.14 551.94,-1339.14 605.94,-1339.14 605.94,-1375.14"/>
<text text-anchor="middle" x="578.94" y="-1353.44" font-family="Helvetica,sans-Serif" font-size="14.00">1</text>
</g>
<!-- &#45;6302768263487000087&#45;&gt;3275365941300815015 -->
<g id="edge5" class="edge">
<title>&#45;6302768263487000087&#45;&gt;3275365941300815015</title>
<path fill="none" stroke="black" d="M572.98,-1375.25C570.13,-1383.43 566.5,-1393.83 562.67,-1404.82"/>
<polygon fill="black" stroke="black" points="559.25,-1404 559.27,-1414.59 565.87,-1406.3 559.25,-1404"/>
</g>
<!-- &#45;1174781652588107539 -->
<g id="node8" class="node">
<title>&#45;1174781652588107539</title>
<polygon fill="none" stroke="black" points="520.94,-915.61 466.94,-915.61 466.94,-879.61 520.94,-879.61 520.94,-915.61"/>
<text text-anchor="middle" x="493.94" y="-893.91" font-family="Helvetica,sans-Serif" font-size="14.00">1</text>
</g>
<!-- &#45;1174781652588107539&#45;&gt;3275365941300815015 -->
<g id="edge6" class="edge">
<title>&#45;1174781652588107539&#45;&gt;3275365941300815015</title>
<path fill="none" stroke="black" d="M494.4,-915.69C495.45,-956.33 497.94,-1061.96 497.94,-1150.2 497.94,-1150.2 497.94,-1150.2 497.94,-1286.14 497.94,-1325.82 506.43,-1369.18 515.58,-1404.41"/>
<polygon fill="black" stroke="black" points="512.22,-1405.37 518.18,-1414.12 518.98,-1403.56 512.22,-1405.37"/>
</g>
<!-- &#45;2810345086435078020 -->
<g id="node9" class="node">
<title>&#45;2810345086435078020</title>
<polygon fill="none" stroke="black" points="115.94,-723.97 61.94,-723.97 61.94,-687.97 115.94,-687.97 115.94,-723.97"/>
<text text-anchor="middle" x="88.94" y="-702.27" font-family="Helvetica,sans-Serif" font-size="14.00">0</text>
</g>
<!-- &#45;2810345086435078020&#45;&gt;&#45;3284065025705737836 -->
<g id="edge7" class="edge">
<title>&#45;2810345086435078020&#45;&gt;&#45;3284065025705737836</title>
<path fill="none" stroke="black" d="M92.65,-724.13C99.8,-757.19 115.53,-829.93 124.1,-869.57"/>
<polygon fill="black" stroke="black" points="120.68,-870.32 126.21,-879.35 127.52,-868.84 120.68,-870.32"/>
</g>
<!-- &#45;7703419115407774386 -->
<g id="node10" class="node">
<title>&#45;7703419115407774386</title>
<polygon fill="none" stroke="black" points="502.94,-723.97 448.94,-723.97 448.94,-687.97 502.94,-687.97 502.94,-723.97"/>
<text text-anchor="middle" x="475.94" y="-702.27" font-family="Helvetica,sans-Serif" font-size="14.00">1</text>
</g>
<!-- &#45;7703419115407774386&#45;&gt;&#45;1174781652588107539 -->
<g id="edge8" class="edge">
<title>&#45;7703419115407774386&#45;&gt;&#45;1174781652588107539</title>
<path fill="none" stroke="black" d="M477.57,-724.13C480.7,-757.12 487.58,-829.62 491.35,-869.32"/>
<polygon fill="black" stroke="black" points="487.88,-869.73 492.3,-879.35 494.84,-869.06 487.88,-869.73"/>
</g>
<!-- 2906962890531877189 -->
<g id="node11" class="node">
<title>2906962890531877189</title>
<ellipse fill="none" stroke="black" cx="473.94" cy="-572.02" rx="79.89" ry="79.89"/>
<text text-anchor="middle" x="473.94" y="-568.32" font-family="Helvetica,sans-Serif" font-size="14.00">repartition&#45;split</text>
</g>
<!-- 2906962890531877189&#45;&gt;&#45;7703419115407774386 -->
<g id="edge9" class="edge">
<title>2906962890531877189&#45;&gt;&#45;7703419115407774386</title>
<path fill="none" stroke="black" d="M475.14,-652.06C475.28,-661.16 475.41,-669.92 475.53,-677.6"/>
<polygon fill="black" stroke="black" points="472.03,-677.72 475.68,-687.66 479.03,-677.61 472.03,-677.72"/>
</g>
<!-- &#45;5598807509604585027 -->
<g id="node12" class="node">
<title>&#45;5598807509604585027</title>
<polygon fill="none" stroke="black" points="545.94,-456.08 491.94,-456.08 491.94,-420.08 545.94,-420.08 545.94,-456.08"/>
<text text-anchor="middle" x="518.94" y="-434.38" font-family="Helvetica,sans-Serif" font-size="14.00">1</text>
</g>
<!-- &#45;5598807509604585027&#45;&gt;2906962890531877189 -->
<g id="edge10" class="edge">
<title>&#45;5598807509604585027&#45;&gt;2906962890531877189</title>
<path fill="none" stroke="black" d="M513.06,-456.33C510.25,-464.57 506.66,-475.1 502.79,-486.43"/>
<polygon fill="black" stroke="black" points="499.41,-485.51 499.49,-496.11 506.04,-487.77 499.41,-485.51"/>
</g>
<!-- &#45;1332356281907015419 -->
<g id="node13" class="node">
<title>&#45;1332356281907015419</title>
<ellipse fill="none" stroke="black" cx="79.94" cy="-572.02" rx="79.89" ry="79.89"/>
<text text-anchor="middle" x="79.94" y="-568.32" font-family="Helvetica,sans-Serif" font-size="14.00">repartition&#45;split</text>
</g>
<!-- &#45;1332356281907015419&#45;&gt;&#45;2810345086435078020 -->
<g id="edge11" class="edge">
<title>&#45;1332356281907015419&#45;&gt;&#45;2810345086435078020</title>
<path fill="none" stroke="black" d="M85.33,-652.06C85.95,-661.16 86.55,-669.92 87.08,-677.6"/>
<polygon fill="black" stroke="black" points="83.59,-677.92 87.76,-687.66 90.57,-677.45 83.59,-677.92"/>
</g>
<!-- &#45;705733480631888661 -->
<g id="node14" class="node">
<title>&#45;705733480631888661</title>
<polygon fill="none" stroke="black" points="136.94,-456.08 82.94,-456.08 82.94,-420.08 136.94,-420.08 136.94,-456.08"/>
<text text-anchor="middle" x="109.94" y="-434.38" font-family="Helvetica,sans-Serif" font-size="14.00">0</text>
</g>
<!-- &#45;705733480631888661&#45;&gt;&#45;1332356281907015419 -->
<g id="edge12" class="edge">
<title>&#45;705733480631888661&#45;&gt;&#45;1332356281907015419</title>
<path fill="none" stroke="black" d="M106.02,-456.33C104.3,-463.9 102.14,-473.4 99.8,-483.68"/>
<polygon fill="black" stroke="black" points="96.32,-483.21 97.52,-493.74 103.15,-484.76 96.32,-483.21"/>
</g>
<!-- 807226937255221141 -->
<g id="node15" class="node">
<title>807226937255221141</title>
<ellipse fill="none" stroke="black" cx="168.94" cy="-361.98" rx="18.7" ry="18.7"/>
<text text-anchor="middle" x="168.94" y="-358.28" font-family="Helvetica,sans-Serif" font-size="14.00">le</text>
</g>
<!-- 807226937255221141&#45;&gt;&#45;705733480631888661 -->
<g id="edge13" class="edge">
<title>807226937255221141&#45;&gt;&#45;705733480631888661</title>
<path fill="none" stroke="black" d="M157.57,-377.27C149.75,-387.08 139.17,-400.38 129.96,-411.94"/>
<polygon fill="black" stroke="black" points="127.05,-409.97 123.56,-419.98 132.53,-414.33 127.05,-409.97"/>
</g>
<!-- 2284054958664549201 -->
<g id="node16" class="node">
<title>2284054958664549201</title>
<polygon fill="none" stroke="black" points="249.94,-303.89 195.94,-303.89 195.94,-267.89 249.94,-267.89 249.94,-303.89"/>
<text text-anchor="middle" x="222.94" y="-282.19" font-family="Helvetica,sans-Serif" font-size="14.00">0</text>
</g>
<!-- 2284054958664549201&#45;&gt;807226937255221141 -->
<g id="edge14" class="edge">
<title>2284054958664549201&#45;&gt;807226937255221141</title>
<path fill="none" stroke="black" d="M210.42,-304.07C203.04,-314.19 193.62,-327.12 185.62,-338.1"/>
<polygon fill="black" stroke="black" points="182.64,-336.25 179.58,-346.39 188.3,-340.37 182.64,-336.25"/>
</g>
<!-- &#45;963631919690435166 -->
<g id="node37" class="node">
<title>&#45;963631919690435166</title>
<ellipse fill="none" stroke="black" cx="235.94" cy="-361.98" rx="22.2" ry="22.2"/>
<text text-anchor="middle" x="235.94" y="-358.28" font-family="Helvetica,sans-Serif" font-size="14.00">ge</text>
</g>
<!-- 2284054958664549201&#45;&gt;&#45;963631919690435166 -->
<g id="edge36" class="edge">
<title>2284054958664549201&#45;&gt;&#45;963631919690435166</title>
<path fill="none" stroke="black" d="M225.96,-304.07C227.31,-311.75 228.94,-321.05 230.49,-329.89"/>
<polygon fill="black" stroke="black" points="227.07,-330.68 232.25,-339.92 233.97,-329.47 227.07,-330.68"/>
</g>
<!-- 5046546109694113749 -->
<g id="node17" class="node">
<title>5046546109694113749</title>
<ellipse fill="none" stroke="black" cx="524.94" cy="-361.98" rx="18.7" ry="18.7"/>
<text text-anchor="middle" x="524.94" y="-358.28" font-family="Helvetica,sans-Serif" font-size="14.00">le</text>
</g>
<!-- 5046546109694113749&#45;&gt;&#45;5598807509604585027 -->
<g id="edge15" class="edge">
<title>5046546109694113749&#45;&gt;&#45;5598807509604585027</title>
<path fill="none" stroke="black" d="M523.49,-380.92C522.78,-389.67 521.92,-400.37 521.13,-410.07"/>
<polygon fill="black" stroke="black" points="517.64,-409.82 520.32,-420.07 524.62,-410.39 517.64,-409.82"/>
</g>
<!-- 4393338331782179498 -->
<g id="node18" class="node">
<title>4393338331782179498</title>
<polygon fill="none" stroke="black" points="643.94,-303.89 589.94,-303.89 589.94,-267.89 643.94,-267.89 643.94,-303.89"/>
<text text-anchor="middle" x="616.94" y="-282.19" font-family="Helvetica,sans-Serif" font-size="14.00">1</text>
</g>
<!-- 4393338331782179498&#45;&gt;5046546109694113749 -->
<g id="edge16" class="edge">
<title>4393338331782179498&#45;&gt;5046546109694113749</title>
<path fill="none" stroke="black" d="M595.61,-304.07C581.14,-315.72 562.05,-331.09 547.37,-342.92"/>
<polygon fill="black" stroke="black" points="544.89,-340.43 539.29,-349.43 549.28,-345.88 544.89,-340.43"/>
</g>
<!-- 3275687252748457442 -->
<g id="node38" class="node">
<title>3275687252748457442</title>
<ellipse fill="none" stroke="black" cx="625.94" cy="-361.98" rx="22.2" ry="22.2"/>
<text text-anchor="middle" x="625.94" y="-358.28" font-family="Helvetica,sans-Serif" font-size="14.00">ge</text>
</g>
<!-- 4393338331782179498&#45;&gt;3275687252748457442 -->
<g id="edge38" class="edge">
<title>4393338331782179498&#45;&gt;3275687252748457442</title>
<path fill="none" stroke="black" d="M619.03,-304.07C619.96,-311.75 621.09,-321.05 622.17,-329.89"/>
<polygon fill="black" stroke="black" points="618.7,-330.42 623.38,-339.92 625.65,-329.57 618.7,-330.42"/>
</g>
<!-- 1152865547137755324 -->
<g id="node19" class="node">
<title>1152865547137755324</title>
<polygon fill="none" stroke="black" points="636.94,-1303.14 582.94,-1303.14 582.94,-1267.14 636.94,-1267.14 636.94,-1303.14"/>
<text text-anchor="middle" x="609.94" y="-1281.44" font-family="Helvetica,sans-Serif" font-size="14.00">1</text>
</g>
<!-- 1152865547137755324&#45;&gt;&#45;6302768263487000087 -->
<g id="edge17" class="edge">
<title>1152865547137755324&#45;&gt;&#45;6302768263487000087</title>
<path fill="none" stroke="black" d="M602.28,-1303.45C598.75,-1311.41 594.49,-1321.04 590.57,-1329.88"/>
<polygon fill="black" stroke="black" points="587.37,-1328.48 586.52,-1339.04 593.77,-1331.31 587.37,-1328.48"/>
</g>
<!-- &#45;123232672331213265 -->
<g id="node20" class="node">
<title>&#45;123232672331213265</title>
<ellipse fill="none" stroke="black" cx="640.94" cy="-1151.2" rx="79.89" ry="79.89"/>
<text text-anchor="middle" x="640.94" y="-1147.5" font-family="Helvetica,sans-Serif" font-size="14.00">repartition&#45;split</text>
</g>
<!-- &#45;123232672331213265&#45;&gt;1152865547137755324 -->
<g id="edge18" class="edge">
<title>&#45;123232672331213265&#45;&gt;1152865547137755324</title>
<path fill="none" stroke="black" d="M622.82,-1229.33C620.47,-1239.32 618.21,-1248.97 616.25,-1257.3"/>
<polygon fill="black" stroke="black" points="612.83,-1256.55 613.95,-1267.09 619.64,-1258.15 612.83,-1256.55"/>
</g>
<!-- &#45;7314691039560959770 -->
<g id="node21" class="node">
<title>&#45;7314691039560959770</title>
<polygon fill="none" stroke="black" points="676.94,-1035.26 622.94,-1035.26 622.94,-999.26 676.94,-999.26 676.94,-1035.26"/>
<text text-anchor="middle" x="649.94" y="-1013.56" font-family="Helvetica,sans-Serif" font-size="14.00">1</text>
</g>
<!-- &#45;7314691039560959770&#45;&gt;&#45;123232672331213265 -->
<g id="edge19" class="edge">
<title>&#45;7314691039560959770&#45;&gt;&#45;123232672331213265</title>
<path fill="none" stroke="black" d="M648.77,-1035.51C648.28,-1042.61 647.68,-1051.41 647.03,-1060.96"/>
<polygon fill="black" stroke="black" points="643.52,-1060.93 646.34,-1071.15 650.51,-1061.41 643.52,-1060.93"/>
</g>
<!-- 6045939576110451690 -->
<g id="node22" class="node">
<title>6045939576110451690</title>
<polygon fill="none" stroke="black" points="248.94,-1303.14 194.94,-1303.14 194.94,-1267.14 248.94,-1267.14 248.94,-1303.14"/>
<text text-anchor="middle" x="221.94" y="-1281.44" font-family="Helvetica,sans-Serif" font-size="14.00">0</text>
</g>
<!-- 6045939576110451690&#45;&gt;2988663148470064407 -->
<g id="edge20" class="edge">
<title>6045939576110451690&#45;&gt;2988663148470064407</title>
<path fill="none" stroke="black" d="M218.48,-1303.45C216.94,-1311.16 215.09,-1320.43 213.37,-1329.03"/>
<polygon fill="black" stroke="black" points="209.89,-1328.55 211.36,-1339.04 216.76,-1329.92 209.89,-1328.55"/>
</g>
<!-- 35805538214262255 -->
<g id="node23" class="node">
<title>35805538214262255</title>
<ellipse fill="none" stroke="black" cx="247.94" cy="-1151.2" rx="79.89" ry="79.89"/>
<text text-anchor="middle" x="247.94" y="-1147.5" font-family="Helvetica,sans-Serif" font-size="14.00">repartition&#45;split</text>
</g>
<!-- 35805538214262255&#45;&gt;6045939576110451690 -->
<g id="edge21" class="edge">
<title>35805538214262255&#45;&gt;6045939576110451690</title>
<path fill="none" stroke="black" d="M232.67,-1229.71C230.76,-1239.39 228.92,-1248.72 227.32,-1256.84"/>
<polygon fill="black" stroke="black" points="223.87,-1256.26 225.37,-1266.75 230.74,-1257.61 223.87,-1256.26"/>
</g>
<!-- 4624412278046593421 -->
<g id="node24" class="node">
<title>4624412278046593421</title>
<polygon fill="none" stroke="black" points="275.94,-1035.26 221.94,-1035.26 221.94,-999.26 275.94,-999.26 275.94,-1035.26"/>
<text text-anchor="middle" x="248.94" y="-1013.56" font-family="Helvetica,sans-Serif" font-size="14.00">0</text>
</g>
<!-- 4624412278046593421&#45;&gt;35805538214262255 -->
<g id="edge22" class="edge">
<title>4624412278046593421&#45;&gt;35805538214262255</title>
<path fill="none" stroke="black" d="M248.81,-1035.51C248.76,-1042.61 248.69,-1051.41 248.62,-1060.96"/>
<polygon fill="black" stroke="black" points="245.12,-1061.12 248.54,-1071.15 252.12,-1061.17 245.12,-1061.12"/>
</g>
<!-- &#45;2647628433863600398 -->
<g id="node25" class="node">
<title>&#45;2647628433863600398</title>
<ellipse fill="none" stroke="black" cx="257.94" cy="-897.61" rx="65.79" ry="65.79"/>
<text text-anchor="middle" x="257.94" y="-893.91" font-family="Helvetica,sans-Serif" font-size="14.00">join&#45;indexed</text>
</g>
<!-- &#45;2647628433863600398&#45;&gt;4624412278046593421 -->
<g id="edge23" class="edge">
<title>&#45;2647628433863600398&#45;&gt;4624412278046593421</title>
<path fill="none" stroke="black" d="M253,-963.28C252.31,-972.28 251.63,-981.1 251.04,-988.88"/>
<polygon fill="black" stroke="black" points="247.53,-988.85 250.26,-999.09 254.51,-989.39 247.53,-988.85"/>
</g>
<!-- 2746721374095318345 -->
<g id="node26" class="node">
<title>2746721374095318345</title>
<polygon fill="none" stroke="black" points="392.94,-456.08 338.94,-456.08 338.94,-420.08 392.94,-420.08 392.94,-456.08"/>
<text text-anchor="middle" x="365.94" y="-434.38" font-family="Helvetica,sans-Serif" font-size="14.00">0</text>
</g>
<!-- 2746721374095318345&#45;&gt;&#45;2647628433863600398 -->
<g id="edge24" class="edge">
<title>2746721374095318345&#45;&gt;&#45;2647628433863600398</title>
<path fill="none" stroke="black" d="M365.91,-456.14C365.53,-492.57 362.86,-580.43 346.94,-651.97 333.37,-712.97 308.49,-779.45 288.48,-827.7"/>
<polygon fill="black" stroke="black" points="285.18,-826.52 284.55,-837.09 291.64,-829.22 285.18,-826.52"/>
</g>
<!-- 3682547619161700902 -->
<g id="node27" class="node">
<title>3682547619161700902</title>
<polygon fill="none" stroke="black" points="284.94,-795.97 230.94,-795.97 230.94,-759.97 284.94,-759.97 284.94,-795.97"/>
<text text-anchor="middle" x="257.94" y="-774.27" font-family="Helvetica,sans-Serif" font-size="14.00">0</text>
</g>
<!-- 3682547619161700902&#45;&gt;&#45;2647628433863600398 -->
<g id="edge25" class="edge">
<title>3682547619161700902&#45;&gt;&#45;2647628433863600398</title>
<path fill="none" stroke="black" d="M257.94,-796.07C257.94,-803.26 257.94,-812.17 257.94,-821.68"/>
<polygon fill="black" stroke="black" points="254.44,-821.76 257.94,-831.76 261.44,-821.76 254.44,-821.76"/>
</g>
<!-- &#45;3451755339012173440 -->
<g id="node28" class="node">
<title>&#45;3451755339012173440</title>
<ellipse fill="none" stroke="black" cx="651.94" cy="-897.61" rx="65.79" ry="65.79"/>
<text text-anchor="middle" x="651.94" y="-893.91" font-family="Helvetica,sans-Serif" font-size="14.00">join&#45;indexed</text>
</g>
<!-- &#45;3451755339012173440&#45;&gt;&#45;7314691039560959770 -->
<g id="edge26" class="edge">
<title>&#45;3451755339012173440&#45;&gt;&#45;7314691039560959770</title>
<path fill="none" stroke="black" d="M650.84,-963.28C650.69,-972.28 650.54,-981.1 650.41,-988.88"/>
<polygon fill="black" stroke="black" points="646.91,-989.03 650.23,-999.09 653.9,-989.15 646.91,-989.03"/>
</g>
<!-- &#45;9192381943512234846 -->
<g id="node29" class="node">
<title>&#45;9192381943512234846</title>
<polygon fill="none" stroke="black" points="786.94,-456.08 732.94,-456.08 732.94,-420.08 786.94,-420.08 786.94,-456.08"/>
<text text-anchor="middle" x="759.94" y="-434.38" font-family="Helvetica,sans-Serif" font-size="14.00">1</text>
</g>
<!-- &#45;9192381943512234846&#45;&gt;&#45;3451755339012173440 -->
<g id="edge27" class="edge">
<title>&#45;9192381943512234846&#45;&gt;&#45;3451755339012173440</title>
<path fill="none" stroke="black" d="M759.91,-456.14C759.53,-492.57 756.86,-580.43 740.94,-651.97 727.37,-712.97 702.49,-779.45 682.48,-827.7"/>
<polygon fill="black" stroke="black" points="679.18,-826.52 678.55,-837.09 685.64,-829.22 679.18,-826.52"/>
</g>
<!-- &#45;8256555698445852289 -->
<g id="node30" class="node">
<title>&#45;8256555698445852289</title>
<polygon fill="none" stroke="black" points="678.94,-795.97 624.94,-795.97 624.94,-759.97 678.94,-759.97 678.94,-795.97"/>
<text text-anchor="middle" x="651.94" y="-774.27" font-family="Helvetica,sans-Serif" font-size="14.00">1</text>
</g>
<!-- &#45;8256555698445852289&#45;&gt;&#45;3451755339012173440 -->
<g id="edge28" class="edge">
<title>&#45;8256555698445852289&#45;&gt;&#45;3451755339012173440</title>
<path fill="none" stroke="black" d="M651.94,-796.07C651.94,-803.26 651.94,-812.17 651.94,-821.68"/>
<polygon fill="black" stroke="black" points="648.44,-821.76 651.94,-831.76 655.44,-821.76 648.44,-821.76"/>
</g>
<!-- 5486252689578254083 -->
<g id="node31" class="node">
<title>5486252689578254083</title>
<polygon fill="none" stroke="black" points="284.94,-723.97 230.94,-723.97 230.94,-687.97 284.94,-687.97 284.94,-723.97"/>
<text text-anchor="middle" x="257.94" y="-702.27" font-family="Helvetica,sans-Serif" font-size="14.00">0</text>
</g>
<!-- 5486252689578254083&#45;&gt;3682547619161700902 -->
<g id="edge29" class="edge">
<title>5486252689578254083&#45;&gt;3682547619161700902</title>
<path fill="none" stroke="black" d="M257.94,-724.27C257.94,-731.98 257.94,-741.26 257.94,-749.86"/>
<polygon fill="black" stroke="black" points="254.44,-749.86 257.94,-759.86 261.44,-749.86 254.44,-749.86"/>
</g>
<!-- &#45;6452850628029299108 -->
<g id="node32" class="node">
<title>&#45;6452850628029299108</title>
<polygon fill="none" stroke="black" points="678.94,-723.97 624.94,-723.97 624.94,-687.97 678.94,-687.97 678.94,-723.97"/>
<text text-anchor="middle" x="651.94" y="-702.27" font-family="Helvetica,sans-Serif" font-size="14.00">1</text>
</g>
<!-- &#45;6452850628029299108&#45;&gt;&#45;8256555698445852289 -->
<g id="edge30" class="edge">
<title>&#45;6452850628029299108&#45;&gt;&#45;8256555698445852289</title>
<path fill="none" stroke="black" d="M651.94,-724.27C651.94,-731.98 651.94,-741.26 651.94,-749.86"/>
<polygon fill="black" stroke="black" points="648.44,-749.86 651.94,-759.86 655.44,-749.86 648.44,-749.86"/>
</g>
<!-- 5093439960714749327 -->
<g id="node33" class="node">
<title>5093439960714749327</title>
<ellipse fill="none" stroke="black" cx="257.94" cy="-572.02" rx="79.89" ry="79.89"/>
<text text-anchor="middle" x="257.94" y="-568.32" font-family="Helvetica,sans-Serif" font-size="14.00">repartition&#45;split</text>
</g>
<!-- 5093439960714749327&#45;&gt;5486252689578254083 -->
<g id="edge31" class="edge">
<title>5093439960714749327&#45;&gt;5486252689578254083</title>
<path fill="none" stroke="black" d="M257.94,-652.06C257.94,-661.16 257.94,-669.92 257.94,-677.6"/>
<polygon fill="black" stroke="black" points="254.44,-677.66 257.94,-687.66 261.44,-677.66 254.44,-677.66"/>
</g>
<!-- &#45;1771605208458555362 -->
<g id="node34" class="node">
<title>&#45;1771605208458555362</title>
<polygon fill="none" stroke="black" points="277.94,-456.08 223.94,-456.08 223.94,-420.08 277.94,-420.08 277.94,-456.08"/>
<text text-anchor="middle" x="250.94" y="-434.38" font-family="Helvetica,sans-Serif" font-size="14.00">0</text>
</g>
<!-- &#45;1771605208458555362&#45;&gt;5093439960714749327 -->
<g id="edge32" class="edge">
<title>&#45;1771605208458555362&#45;&gt;5093439960714749327</title>
<path fill="none" stroke="black" d="M251.86,-456.33C252.23,-463.43 252.7,-472.24 253.21,-481.79"/>
<polygon fill="black" stroke="black" points="249.72,-482.17 253.75,-491.97 256.71,-481.8 249.72,-482.17"/>
</g>
<!-- &#45;538006704615287012 -->
<g id="node35" class="node">
<title>&#45;538006704615287012</title>
<ellipse fill="none" stroke="black" cx="651.94" cy="-572.02" rx="79.89" ry="79.89"/>
<text text-anchor="middle" x="651.94" y="-568.32" font-family="Helvetica,sans-Serif" font-size="14.00">repartition&#45;split</text>
</g>
<!-- &#45;538006704615287012&#45;&gt;&#45;6452850628029299108 -->
<g id="edge33" class="edge">
<title>&#45;538006704615287012&#45;&gt;&#45;6452850628029299108</title>
<path fill="none" stroke="black" d="M651.94,-652.06C651.94,-661.16 651.94,-669.92 651.94,-677.6"/>
<polygon fill="black" stroke="black" points="648.44,-677.66 651.94,-687.66 655.44,-677.66 648.44,-677.66"/>
</g>
<!-- &#45;6664679237431251728 -->
<g id="node36" class="node">
<title>&#45;6664679237431251728</title>
<polygon fill="none" stroke="black" points="661.94,-456.08 607.94,-456.08 607.94,-420.08 661.94,-420.08 661.94,-456.08"/>
<text text-anchor="middle" x="634.94" y="-434.38" font-family="Helvetica,sans-Serif" font-size="14.00">1</text>
</g>
<!-- &#45;6664679237431251728&#45;&gt;&#45;538006704615287012 -->
<g id="edge34" class="edge">
<title>&#45;6664679237431251728&#45;&gt;&#45;538006704615287012</title>
<path fill="none" stroke="black" d="M637.17,-456.33C638.1,-463.61 639.27,-472.68 640.54,-482.52"/>
<polygon fill="black" stroke="black" points="637.08,-483.09 641.83,-492.56 644.03,-482.2 637.08,-483.09"/>
</g>
<!-- &#45;963631919690435166&#45;&gt;&#45;1771605208458555362 -->
<g id="edge35" class="edge">
<title>&#45;963631919690435166&#45;&gt;&#45;1771605208458555362</title>
<path fill="none" stroke="black" d="M240.2,-384.02C241.83,-392.05 243.7,-401.32 245.43,-409.85"/>
<polygon fill="black" stroke="black" points="242.02,-410.64 247.43,-419.74 248.88,-409.25 242.02,-410.64"/>
</g>
<!-- 3275687252748457442&#45;&gt;&#45;6664679237431251728 -->
<g id="edge37" class="edge">
<title>3275687252748457442&#45;&gt;&#45;6664679237431251728</title>
<path fill="none" stroke="black" d="M628.5,-384.02C629.46,-391.96 630.57,-401.12 631.6,-409.57"/>
<polygon fill="black" stroke="black" points="628.16,-410.24 632.84,-419.74 635.11,-409.4 628.16,-410.24"/>
</g>
<!-- &#45;3090746704961462156 -->
<g id="node39" class="node">
<title>&#45;3090746704961462156</title>
<ellipse fill="none" stroke="black" cx="222.94" cy="-151.94" rx="45.49" ry="45.49"/>
<text text-anchor="middle" x="222.94" y="-148.24" font-family="Helvetica,sans-Serif" font-size="14.00">getitem</text>
</g>
<!-- &#45;3090746704961462156&#45;&gt;2284054958664549201 -->
<g id="edge39" class="edge">
<title>&#45;3090746704961462156&#45;&gt;2284054958664549201</title>
<path fill="none" stroke="black" d="M222.94,-197.61C222.94,-217.36 222.94,-239.96 222.94,-257.21"/>
<polygon fill="black" stroke="black" points="219.44,-257.7 222.94,-267.7 226.44,-257.7 219.44,-257.7"/>
</g>
<!-- 2735340076725316958 -->
<g id="node40" class="node">
<title>2735340076725316958</title>
<polygon fill="none" stroke="black" points="321.94,-36 267.94,-36 267.94,0 321.94,0 321.94,-36"/>
<text text-anchor="middle" x="294.94" y="-14.3" font-family="Helvetica,sans-Serif" font-size="14.00">0</text>
</g>
<!-- 2735340076725316958&#45;&gt;&#45;3090746704961462156 -->
<g id="edge40" class="edge">
<title>2735340076725316958&#45;&gt;&#45;3090746704961462156</title>
<path fill="none" stroke="black" d="M285.53,-36.25C276.34,-53.08 261.94,-79.48 249.26,-102.71"/>
<polygon fill="black" stroke="black" points="246.04,-101.31 244.32,-111.77 252.18,-104.66 246.04,-101.31"/>
</g>
<!-- 4207794548720705267 -->
<g id="node45" class="node">
<title>4207794548720705267</title>
<ellipse fill="none" stroke="black" cx="365.94" cy="-151.94" rx="79.89" ry="79.89"/>
<text text-anchor="middle" x="365.94" y="-148.24" font-family="Helvetica,sans-Serif" font-size="14.00">repartition&#45;split</text>
</g>
<!-- 2735340076725316958&#45;&gt;4207794548720705267 -->
<g id="edge46" class="edge">
<title>2735340076725316958&#45;&gt;4207794548720705267</title>
<path fill="none" stroke="black" d="M304.22,-36.25C309.41,-45.88 316.27,-58.63 323.53,-72.13"/>
<polygon fill="black" stroke="black" points="320.53,-73.94 328.35,-81.08 326.69,-70.62 320.53,-73.94"/>
</g>
<!-- &#45;9171032194821248449 -->
<g id="node41" class="node">
<title>&#45;9171032194821248449</title>
<ellipse fill="none" stroke="black" cx="616.94" cy="-151.94" rx="45.49" ry="45.49"/>
<text text-anchor="middle" x="616.94" y="-148.24" font-family="Helvetica,sans-Serif" font-size="14.00">getitem</text>
</g>
<!-- &#45;9171032194821248449&#45;&gt;4393338331782179498 -->
<g id="edge41" class="edge">
<title>&#45;9171032194821248449&#45;&gt;4393338331782179498</title>
<path fill="none" stroke="black" d="M616.94,-197.61C616.94,-217.36 616.94,-239.96 616.94,-257.21"/>
<polygon fill="black" stroke="black" points="613.44,-257.7 616.94,-267.7 620.44,-257.7 613.44,-257.7"/>
</g>
<!-- &#45;2157733952247379408 -->
<g id="node42" class="node">
<title>&#45;2157733952247379408</title>
<polygon fill="none" stroke="black" points="714.94,-36 660.94,-36 660.94,0 714.94,0 714.94,-36"/>
<text text-anchor="middle" x="687.94" y="-14.3" font-family="Helvetica,sans-Serif" font-size="14.00">1</text>
</g>
<!-- &#45;2157733952247379408&#45;&gt;&#45;9171032194821248449 -->
<g id="edge42" class="edge">
<title>&#45;2157733952247379408&#45;&gt;&#45;9171032194821248449</title>
<path fill="none" stroke="black" d="M678.66,-36.25C669.63,-53.02 655.5,-79.29 643.03,-102.46"/>
<polygon fill="black" stroke="black" points="639.83,-101.03 638.17,-111.49 645.99,-104.34 639.83,-101.03"/>
</g>
<!-- &#45;4269055154742131039 -->
<g id="node46" class="node">
<title>&#45;4269055154742131039</title>
<ellipse fill="none" stroke="black" cx="759.94" cy="-151.94" rx="79.89" ry="79.89"/>
<text text-anchor="middle" x="759.94" y="-148.24" font-family="Helvetica,sans-Serif" font-size="14.00">repartition&#45;split</text>
</g>
<!-- &#45;2157733952247379408&#45;&gt;&#45;4269055154742131039 -->
<g id="edge48" class="edge">
<title>&#45;2157733952247379408&#45;&gt;&#45;4269055154742131039</title>
<path fill="none" stroke="black" d="M697.36,-36.25C702.64,-45.93 709.65,-58.78 717.07,-72.37"/>
<polygon fill="black" stroke="black" points="714.12,-74.28 721.98,-81.38 720.27,-70.93 714.12,-74.28"/>
</g>
<!-- &#45;8706323815471861644 -->
<g id="node43" class="node">
<title>&#45;8706323815471861644</title>
<polygon fill="none" stroke="black" points="392.94,-303.89 338.94,-303.89 338.94,-267.89 392.94,-267.89 392.94,-303.89"/>
<text text-anchor="middle" x="365.94" y="-282.19" font-family="Helvetica,sans-Serif" font-size="14.00">0</text>
</g>
<!-- &#45;8706323815471861644&#45;&gt;2746721374095318345 -->
<g id="edge43" class="edge">
<title>&#45;8706323815471861644&#45;&gt;2746721374095318345</title>
<path fill="none" stroke="black" d="M365.94,-304.12C365.94,-330.03 365.94,-379.28 365.94,-410.02"/>
<polygon fill="black" stroke="black" points="362.44,-410.05 365.94,-420.05 369.44,-410.05 362.44,-410.05"/>
</g>
<!-- 4847346229264993606 -->
<g id="node44" class="node">
<title>4847346229264993606</title>
<polygon fill="none" stroke="black" points="786.94,-303.89 732.94,-303.89 732.94,-267.89 786.94,-267.89 786.94,-303.89"/>
<text text-anchor="middle" x="759.94" y="-282.19" font-family="Helvetica,sans-Serif" font-size="14.00">1</text>
</g>
<!-- 4847346229264993606&#45;&gt;&#45;9192381943512234846 -->
<g id="edge44" class="edge">
<title>4847346229264993606&#45;&gt;&#45;9192381943512234846</title>
<path fill="none" stroke="black" d="M759.94,-304.12C759.94,-330.03 759.94,-379.28 759.94,-410.02"/>
<polygon fill="black" stroke="black" points="756.44,-410.05 759.94,-420.05 763.44,-410.05 756.44,-410.05"/>
</g>
<!-- 4207794548720705267&#45;&gt;&#45;8706323815471861644 -->
<g id="edge45" class="edge">
<title>4207794548720705267&#45;&gt;&#45;8706323815471861644</title>
<path fill="none" stroke="black" d="M365.94,-231.98C365.94,-241.08 365.94,-249.84 365.94,-257.52"/>
<polygon fill="black" stroke="black" points="362.44,-257.58 365.94,-267.58 369.44,-257.58 362.44,-257.58"/>
</g>
<!-- &#45;4269055154742131039&#45;&gt;4847346229264993606 -->
<g id="edge47" class="edge">
<title>&#45;4269055154742131039&#45;&gt;4847346229264993606</title>
<path fill="none" stroke="black" d="M759.94,-231.98C759.94,-241.08 759.94,-249.84 759.94,-257.52"/>
<polygon fill="black" stroke="black" points="756.44,-257.58 759.94,-267.58 763.44,-257.58 756.44,-257.58"/>
</g>
</g>
</svg>
